<mxfile host="drawio-plugin" modified="2021-11-02T07:58:59.381Z" agent="5.0 (X11; Linux x86_64) AppleWebKit/537.36 (KHTML, like Gecko) Chrome/89.0.4389.114 Safari/537.36" etag="W3WwHPdAg5OkGaPZQt_i" version="14.7.4" type="embed" pages="2"><diagram id="AAXwGazEUN2-GNb-1yAt" name="First Version"><mxGraphModel dx="943" dy="416" grid="1" gridSize="10" guides="1" tooltips="1" connect="1" arrows="1" fold="1" page="1" pageScale="1" pageWidth="827" pageHeight="1169" math="0" shadow="0"><root><mxCell id="0"/><mxCell id="1" parent="0"/><mxCell id="O7OG5EorGiRBwuyAcbDL-1" value="Main" style="swimlane;fontStyle=1;align=center;verticalAlign=top;childLayout=stackLayout;horizontal=1;startSize=26;horizontalStack=0;resizeParent=1;resizeParentMax=0;resizeLast=0;collapsible=1;marginBottom=0;" parent="1" vertex="1"><mxGeometry x="30" y="180" width="160" height="60" as="geometry"/></mxCell><mxCell id="O7OG5EorGiRBwuyAcbDL-3" value="" style="line;strokeWidth=1;fillColor=none;align=left;verticalAlign=middle;spacingTop=-1;spacingLeft=3;spacingRight=3;rotatable=0;labelPosition=right;points=[];portConstraint=eastwest;" parent="O7OG5EorGiRBwuyAcbDL-1" vertex="1"><mxGeometry y="26" width="160" height="8" as="geometry"/></mxCell><mxCell id="O7OG5EorGiRBwuyAcbDL-4" value="+ s main(String[] args): type" style="text;strokeColor=none;fillColor=none;align=left;verticalAlign=top;spacingLeft=4;spacingRight=4;overflow=hidden;rotatable=0;points=[[0,0.5],[1,0.5]];portConstraint=eastwest;" parent="O7OG5EorGiRBwuyAcbDL-1" vertex="1"><mxGeometry y="34" width="160" height="26" as="geometry"/></mxCell><mxCell id="O7OG5EorGiRBwuyAcbDL-5" value="Account" style="swimlane;fontStyle=1;align=center;verticalAlign=top;childLayout=stackLayout;horizontal=1;startSize=26;horizontalStack=0;resizeParent=1;resizeParentMax=0;resizeLast=0;collapsible=1;marginBottom=0;" parent="1" vertex="1"><mxGeometry x="590" y="180" width="180" height="372" as="geometry"/></mxCell><mxCell id="O7OG5EorGiRBwuyAcbDL-6" value="- f uuid: String" style="text;strokeColor=none;fillColor=none;align=left;verticalAlign=top;spacingLeft=4;spacingRight=4;overflow=hidden;rotatable=0;points=[[0,0.5],[1,0.5]];portConstraint=eastwest;" parent="O7OG5EorGiRBwuyAcbDL-5" vertex="1"><mxGeometry y="26" width="180" height="26" as="geometry"/></mxCell><mxCell id="O7OG5EorGiRBwuyAcbDL-9" value="- password: String" style="text;strokeColor=none;fillColor=none;align=left;verticalAlign=top;spacingLeft=4;spacingRight=4;overflow=hidden;rotatable=0;points=[[0,0.5],[1,0.5]];portConstraint=eastwest;" parent="O7OG5EorGiRBwuyAcbDL-5" vertex="1"><mxGeometry y="52" width="180" height="26" as="geometry"/></mxCell><mxCell id="O7OG5EorGiRBwuyAcbDL-10" value="- balance: Double" style="text;strokeColor=none;fillColor=none;align=left;verticalAlign=top;spacingLeft=4;spacingRight=4;overflow=hidden;rotatable=0;points=[[0,0.5],[1,0.5]];portConstraint=eastwest;" parent="O7OG5EorGiRBwuyAcbDL-5" vertex="1"><mxGeometry y="78" width="180" height="26" as="geometry"/></mxCell><mxCell id="O7OG5EorGiRBwuyAcbDL-11" value="- f isAdmin: Boolean" style="text;strokeColor=none;fillColor=none;align=left;verticalAlign=top;spacingLeft=4;spacingRight=4;overflow=hidden;rotatable=0;points=[[0,0.5],[1,0.5]];portConstraint=eastwest;" parent="O7OG5EorGiRBwuyAcbDL-5" vertex="1"><mxGeometry y="104" width="180" height="26" as="geometry"/></mxCell><mxCell id="O7OG5EorGiRBwuyAcbDL-7" value="" style="line;strokeWidth=1;fillColor=none;align=left;verticalAlign=middle;spacingTop=-1;spacingLeft=3;spacingRight=3;rotatable=0;labelPosition=right;points=[];portConstraint=eastwest;" parent="O7OG5EorGiRBwuyAcbDL-5" vertex="1"><mxGeometry y="130" width="180" height="8" as="geometry"/></mxCell><mxCell id="O7OG5EorGiRBwuyAcbDL-14" value="+ Account(): void" style="text;strokeColor=none;fillColor=none;align=left;verticalAlign=top;spacingLeft=4;spacingRight=4;overflow=hidden;rotatable=0;points=[[0,0.5],[1,0.5]];portConstraint=eastwest;" parent="O7OG5EorGiRBwuyAcbDL-5" vertex="1"><mxGeometry y="138" width="180" height="26" as="geometry"/></mxCell><mxCell id="O7OG5EorGiRBwuyAcbDL-19" value="+ updatePassword(): void" style="text;strokeColor=none;fillColor=none;align=left;verticalAlign=top;spacingLeft=4;spacingRight=4;overflow=hidden;rotatable=0;points=[[0,0.5],[1,0.5]];portConstraint=eastwest;" parent="O7OG5EorGiRBwuyAcbDL-5" vertex="1"><mxGeometry y="164" width="180" height="26" as="geometry"/></mxCell><mxCell id="O7OG5EorGiRBwuyAcbDL-20" value="+ updateBalance(): void" style="text;strokeColor=none;fillColor=none;align=left;verticalAlign=top;spacingLeft=4;spacingRight=4;overflow=hidden;rotatable=0;points=[[0,0.5],[1,0.5]];portConstraint=eastwest;" parent="O7OG5EorGiRBwuyAcbDL-5" vertex="1"><mxGeometry y="190" width="180" height="26" as="geometry"/></mxCell><mxCell id="O7OG5EorGiRBwuyAcbDL-8" value="+ getUuid(): String" style="text;strokeColor=none;fillColor=none;align=left;verticalAlign=top;spacingLeft=4;spacingRight=4;overflow=hidden;rotatable=0;points=[[0,0.5],[1,0.5]];portConstraint=eastwest;" parent="O7OG5EorGiRBwuyAcbDL-5" vertex="1"><mxGeometry y="216" width="180" height="26" as="geometry"/></mxCell><mxCell id="O7OG5EorGiRBwuyAcbDL-15" value="+ getPassword(): String" style="text;strokeColor=none;fillColor=none;align=left;verticalAlign=top;spacingLeft=4;spacingRight=4;overflow=hidden;rotatable=0;points=[[0,0.5],[1,0.5]];portConstraint=eastwest;" parent="O7OG5EorGiRBwuyAcbDL-5" vertex="1"><mxGeometry y="242" width="180" height="26" as="geometry"/></mxCell><mxCell id="O7OG5EorGiRBwuyAcbDL-16" value="+ getBalance(): Double" style="text;strokeColor=none;fillColor=none;align=left;verticalAlign=top;spacingLeft=4;spacingRight=4;overflow=hidden;rotatable=0;points=[[0,0.5],[1,0.5]];portConstraint=eastwest;" parent="O7OG5EorGiRBwuyAcbDL-5" vertex="1"><mxGeometry y="268" width="180" height="26" as="geometry"/></mxCell><mxCell id="O7OG5EorGiRBwuyAcbDL-26" value="+ getIsAdmin(): Double" style="text;strokeColor=none;fillColor=none;align=left;verticalAlign=top;spacingLeft=4;spacingRight=4;overflow=hidden;rotatable=0;points=[[0,0.5],[1,0.5]];portConstraint=eastwest;" parent="O7OG5EorGiRBwuyAcbDL-5" vertex="1"><mxGeometry y="294" width="180" height="26" as="geometry"/></mxCell><mxCell id="O7OG5EorGiRBwuyAcbDL-17" value="+ setPassword(String): String" style="text;strokeColor=none;fillColor=none;align=left;verticalAlign=top;spacingLeft=4;spacingRight=4;overflow=hidden;rotatable=0;points=[[0,0.5],[1,0.5]];portConstraint=eastwest;" parent="O7OG5EorGiRBwuyAcbDL-5" vertex="1"><mxGeometry y="320" width="180" height="26" as="geometry"/></mxCell><mxCell id="O7OG5EorGiRBwuyAcbDL-18" value="+ setBalance(Double): Double" style="text;strokeColor=none;fillColor=none;align=left;verticalAlign=top;spacingLeft=4;spacingRight=4;overflow=hidden;rotatable=0;points=[[0,0.5],[1,0.5]];portConstraint=eastwest;" parent="O7OG5EorGiRBwuyAcbDL-5" vertex="1"><mxGeometry y="346" width="180" height="26" as="geometry"/></mxCell><mxCell id="O7OG5EorGiRBwuyAcbDL-21" value="Cli" style="swimlane;fontStyle=1;align=center;verticalAlign=top;childLayout=stackLayout;horizontal=1;startSize=26;horizontalStack=0;resizeParent=1;resizeParentMax=0;resizeLast=0;collapsible=1;marginBottom=0;" parent="1" vertex="1"><mxGeometry x="200" y="180" width="160" height="60" as="geometry"/></mxCell><mxCell id="O7OG5EorGiRBwuyAcbDL-23" value="" style="line;strokeWidth=1;fillColor=none;align=left;verticalAlign=middle;spacingTop=-1;spacingLeft=3;spacingRight=3;rotatable=0;labelPosition=right;points=[];portConstraint=eastwest;" parent="O7OG5EorGiRBwuyAcbDL-21" vertex="1"><mxGeometry y="26" width="160" height="8" as="geometry"/></mxCell><mxCell id="O7OG5EorGiRBwuyAcbDL-24" value="+ init(): void" style="text;strokeColor=none;fillColor=none;align=left;verticalAlign=top;spacingLeft=4;spacingRight=4;overflow=hidden;rotatable=0;points=[[0,0.5],[1,0.5]];portConstraint=eastwest;" parent="O7OG5EorGiRBwuyAcbDL-21" vertex="1"><mxGeometry y="34" width="160" height="26" as="geometry"/></mxCell><mxCell id="O7OG5EorGiRBwuyAcbDL-27" value="CreateAccount" style="swimlane;fontStyle=1;align=center;verticalAlign=top;childLayout=stackLayout;horizontal=1;startSize=26;horizontalStack=0;resizeParent=1;resizeParentMax=0;resizeLast=0;collapsible=1;marginBottom=0;" parent="1" vertex="1"><mxGeometry x="200" y="250" width="160" height="86" as="geometry"/></mxCell><mxCell id="O7OG5EorGiRBwuyAcbDL-28" value="" style="line;strokeWidth=1;fillColor=none;align=left;verticalAlign=middle;spacingTop=-1;spacingLeft=3;spacingRight=3;rotatable=0;labelPosition=right;points=[];portConstraint=eastwest;" parent="O7OG5EorGiRBwuyAcbDL-27" vertex="1"><mxGeometry y="26" width="160" height="8" as="geometry"/></mxCell><mxCell id="O7OG5EorGiRBwuyAcbDL-29" value="+ register(): void" style="text;strokeColor=none;fillColor=none;align=left;verticalAlign=top;spacingLeft=4;spacingRight=4;overflow=hidden;rotatable=0;points=[[0,0.5],[1,0.5]];portConstraint=eastwest;" parent="O7OG5EorGiRBwuyAcbDL-27" vertex="1"><mxGeometry y="34" width="160" height="26" as="geometry"/></mxCell><mxCell id="O7OG5EorGiRBwuyAcbDL-36" value="+ createAccount(): void" style="text;strokeColor=none;fillColor=none;align=left;verticalAlign=top;spacingLeft=4;spacingRight=4;overflow=hidden;rotatable=0;points=[[0,0.5],[1,0.5]];portConstraint=eastwest;" parent="O7OG5EorGiRBwuyAcbDL-27" vertex="1"><mxGeometry y="60" width="160" height="26" as="geometry"/></mxCell><mxCell id="O7OG5EorGiRBwuyAcbDL-30" value="Login" style="swimlane;fontStyle=1;align=center;verticalAlign=top;childLayout=stackLayout;horizontal=1;startSize=26;horizontalStack=0;resizeParent=1;resizeParentMax=0;resizeLast=0;collapsible=1;marginBottom=0;" parent="1" vertex="1"><mxGeometry x="30" y="250" width="160" height="60" as="geometry"/></mxCell><mxCell id="O7OG5EorGiRBwuyAcbDL-31" value="" style="line;strokeWidth=1;fillColor=none;align=left;verticalAlign=middle;spacingTop=-1;spacingLeft=3;spacingRight=3;rotatable=0;labelPosition=right;points=[];portConstraint=eastwest;" parent="O7OG5EorGiRBwuyAcbDL-30" vertex="1"><mxGeometry y="26" width="160" height="8" as="geometry"/></mxCell><mxCell id="O7OG5EorGiRBwuyAcbDL-32" value="+ loginCheck(): Boolean" style="text;strokeColor=none;fillColor=none;align=left;verticalAlign=top;spacingLeft=4;spacingRight=4;overflow=hidden;rotatable=0;points=[[0,0.5],[1,0.5]];portConstraint=eastwest;" parent="O7OG5EorGiRBwuyAcbDL-30" vertex="1"><mxGeometry y="34" width="160" height="26" as="geometry"/></mxCell><mxCell id="O7OG5EorGiRBwuyAcbDL-37" value="UserAction" style="swimlane;fontStyle=1;align=center;verticalAlign=top;childLayout=stackLayout;horizontal=1;startSize=26;horizontalStack=0;resizeParent=1;resizeParentMax=0;resizeLast=0;collapsible=1;marginBottom=0;" parent="1" vertex="1"><mxGeometry x="30" y="320" width="160" height="112" as="geometry"/></mxCell><mxCell id="O7OG5EorGiRBwuyAcbDL-38" value="" style="line;strokeWidth=1;fillColor=none;align=left;verticalAlign=middle;spacingTop=-1;spacingLeft=3;spacingRight=3;rotatable=0;labelPosition=right;points=[];portConstraint=eastwest;" parent="O7OG5EorGiRBwuyAcbDL-37" vertex="1"><mxGeometry y="26" width="160" height="8" as="geometry"/></mxCell><mxCell id="O7OG5EorGiRBwuyAcbDL-39" value="+ withdraw(): Boolean" style="text;strokeColor=none;fillColor=none;align=left;verticalAlign=top;spacingLeft=4;spacingRight=4;overflow=hidden;rotatable=0;points=[[0,0.5],[1,0.5]];portConstraint=eastwest;" parent="O7OG5EorGiRBwuyAcbDL-37" vertex="1"><mxGeometry y="34" width="160" height="26" as="geometry"/></mxCell><mxCell id="O7OG5EorGiRBwuyAcbDL-40" value="+ deposit(): Boolean" style="text;strokeColor=none;fillColor=none;align=left;verticalAlign=top;spacingLeft=4;spacingRight=4;overflow=hidden;rotatable=0;points=[[0,0.5],[1,0.5]];portConstraint=eastwest;" parent="O7OG5EorGiRBwuyAcbDL-37" vertex="1"><mxGeometry y="60" width="160" height="26" as="geometry"/></mxCell><mxCell id="O7OG5EorGiRBwuyAcbDL-41" value="+ transfer(): Boolean" style="text;strokeColor=none;fillColor=none;align=left;verticalAlign=top;spacingLeft=4;spacingRight=4;overflow=hidden;rotatable=0;points=[[0,0.5],[1,0.5]];portConstraint=eastwest;" parent="O7OG5EorGiRBwuyAcbDL-37" vertex="1"><mxGeometry y="86" width="160" height="26" as="geometry"/></mxCell><mxCell id="O7OG5EorGiRBwuyAcbDL-52" value="Transaction" style="swimlane;fontStyle=1;align=center;verticalAlign=top;childLayout=stackLayout;horizontal=1;startSize=26;horizontalStack=0;resizeParent=1;resizeParentMax=0;resizeLast=0;collapsible=1;marginBottom=0;" parent="1" vertex="1"><mxGeometry x="400" y="180" width="180" height="138" as="geometry"/></mxCell><mxCell id="O7OG5EorGiRBwuyAcbDL-53" value="- f balanceFirstAcc: Double " style="text;strokeColor=none;fillColor=none;align=left;verticalAlign=top;spacingLeft=4;spacingRight=4;overflow=hidden;rotatable=0;points=[[0,0.5],[1,0.5]];portConstraint=eastwest;" parent="O7OG5EorGiRBwuyAcbDL-52" vertex="1"><mxGeometry y="26" width="180" height="26" as="geometry"/></mxCell><mxCell id="O7OG5EorGiRBwuyAcbDL-56" value="- f balanceSecondAcc: Double" style="text;strokeColor=none;fillColor=none;align=left;verticalAlign=top;spacingLeft=4;spacingRight=4;overflow=hidden;rotatable=0;points=[[0,0.5],[1,0.5]];portConstraint=eastwest;" parent="O7OG5EorGiRBwuyAcbDL-52" vertex="1"><mxGeometry y="52" width="180" height="26" as="geometry"/></mxCell><mxCell id="O7OG5EorGiRBwuyAcbDL-54" value="" style="line;strokeWidth=1;fillColor=none;align=left;verticalAlign=middle;spacingTop=-1;spacingLeft=3;spacingRight=3;rotatable=0;labelPosition=right;points=[];portConstraint=eastwest;" parent="O7OG5EorGiRBwuyAcbDL-52" vertex="1"><mxGeometry y="78" width="180" height="8" as="geometry"/></mxCell><mxCell id="O7OG5EorGiRBwuyAcbDL-55" value="+ Transaction(): void" style="text;strokeColor=none;fillColor=none;align=left;verticalAlign=top;spacingLeft=4;spacingRight=4;overflow=hidden;rotatable=0;points=[[0,0.5],[1,0.5]];portConstraint=eastwest;" parent="O7OG5EorGiRBwuyAcbDL-52" vertex="1"><mxGeometry y="86" width="180" height="26" as="geometry"/></mxCell><mxCell id="O7OG5EorGiRBwuyAcbDL-57" value="+ verifyTransaction(): Boolean" style="text;strokeColor=none;fillColor=none;align=left;verticalAlign=top;spacingLeft=4;spacingRight=4;overflow=hidden;rotatable=0;points=[[0,0.5],[1,0.5]];portConstraint=eastwest;" parent="O7OG5EorGiRBwuyAcbDL-52" vertex="1"><mxGeometry y="112" width="180" height="26" as="geometry"/></mxCell></root></mxGraphModel></diagram><diagram id="DMPcaSuKaPAdVXbnsGa_" name="Final Version"><mxGraphModel dx="943" dy="416" grid="1" gridSize="10" guides="1" tooltips="1" connect="1" arrows="1" fold="1" page="1" pageScale="1" pageWidth="850" pageHeight="1100" math="0" shadow="0"><root><mxCell id="KH6B_vrIemyx50Xi_Aja-0"/><mxCell id="KH6B_vrIemyx50Xi_Aja-1" parent="KH6B_vrIemyx50Xi_Aja-0"/><mxCell id="B7eezEkqk_sI_Jhnp9Or-0" value="The final version of the class diagram can be found in the folder &quot;final diagrams&quot;" style="text;html=1;strokeColor=none;fillColor=none;align=center;verticalAlign=middle;whiteSpace=wrap;rounded=0;" parent="KH6B_vrIemyx50Xi_Aja-1" vertex="1"><mxGeometry x="240" y="260" width="230" height="120" as="geometry"/></mxCell></root></mxGraphModel></diagram></mxfile>